<svg xmlns="http://www.w3.org/2000/svg" width="46" height="46" fill="none"><circle cx="23" cy="23" r="22.25" fill="#fff" stroke="#675DA9" stroke-width="1.5"/><path fill="#675DA9" d="M31.79 14.178c-.554-.51-2.796-2.14-7.794-2.162 0 0-5.891-.357-8.763 2.278-1.6 1.6-2.162 3.935-2.22 6.838-.058 2.899-.134 8.335 5.105 9.809h.004l-.004 2.246s-.031.911.567 1.095c.724.223 1.152-.47 1.845-1.215.38-.411.902-1.01 1.3-1.47 3.582.3 6.337-.388 6.65-.491.724-.237 4.82-.76 5.485-6.195.688-5.592-.335-9.134-2.175-10.733Zm.607 10.34c-.563 4.538-3.881 4.824-4.493 5.02-.26.085-2.68.688-5.726.487 0 0-2.27 2.738-2.975 3.448-.111.112-.241.156-.326.134-.12-.031-.156-.174-.152-.384 0-.304.018-3.738.018-3.738-.004 0-.004 0 0 0-4.435-1.229-4.176-5.856-4.127-8.277.05-2.42.505-4.408 1.858-5.744 2.425-2.197 7.432-1.871 7.432-1.871 4.226.018 6.249 1.29 6.718 1.715 1.559 1.34 2.354 4.534 1.773 9.21Z"/><path fill="#675DA9" d="M26.055 21.293a.284.284 0 0 1-.281-.268c-.05-.96-.5-1.43-1.42-1.478a.284.284 0 0 1 .03-.567c1.216.067 1.894.763 1.957 2.014a.278.278 0 0 1-.268.295.034.034 0 0 1-.018.004Z"/><path fill="#675DA9" d="M27.502 21.776h-.005a.284.284 0 0 1-.276-.29c.022-.965-.255-1.747-.845-2.39-.585-.643-1.393-.992-2.46-1.068a.281.281 0 0 1-.26-.303.281.281 0 0 1 .304-.26c1.206.09 2.157.51 2.836 1.251.684.746 1.014 1.68.992 2.783a.286.286 0 0 1-.286.277Z"/><path fill="#675DA9" d="M28.985 22.356a.28.28 0 0 1-.281-.281c-.014-1.729-.51-3.046-1.519-4.033-.996-.974-2.26-1.47-3.747-1.483a.284.284 0 0 1 0-.567c1.639.013 3.032.563 4.136 1.643 1.107 1.081 1.674 2.573 1.692 4.431a.28.28 0 0 1-.281.29c.004 0 .004 0 0 0ZM24.42 24.79s.397.036.612-.227l.415-.523c.201-.259.688-.424 1.161-.16.264.147.742.442 1.037.66.317.233.96.769.964.773.308.26.38.639.17 1.045v.01c-.214.379-.505.736-.866 1.067-.005 0-.005.004-.01.004-.299.25-.593.393-.88.424-.035.01-.075.01-.129.01-.125 0-.25-.018-.375-.059l-.009-.013c-.447-.125-1.188-.438-2.42-1.121a14.385 14.385 0 0 1-2.037-1.345 10.434 10.434 0 0 1-.947-.844l-.032-.031a4.618 4.618 0 0 1-.062-.063 11.244 11.244 0 0 1-.813-.915 14.119 14.119 0 0 1-1.344-2.037c-.684-1.237-.996-1.979-1.121-2.42l-.014-.01a1.217 1.217 0 0 1-.049-.504c.036-.29.179-.58.424-.88 0-.005.005-.005.005-.01.33-.365.688-.651 1.067-.866h.01c.401-.21.78-.138 1.044.17 0 0 .54.648.773.965.219.3.514.773.661 1.036.264.474.098.96-.16 1.161l-.523.416c-.264.214-.228.612-.228.612s.773 2.939 3.676 3.676Z"/></svg>