<svg xmlns="http://www.w3.org/2000/svg" width="52" height="52" fill="none"><path fill="#41B7E9" d="M24.322 31.032c0-2.914.935-5.606 2.516-7.802V10.065H3.354v31.87h23.484v-3.1a13.34 13.34 0 0 1-2.516-7.803Z"/><path fill="#1F2428" d="M18.451 3.355h1.678v1.677H18.45V3.355ZM10.065 3.355h6.71v1.677h-6.71V3.355ZM11.742 46.968h6.71v1.677h-6.71v-1.677ZM23.483 46.968h1.678v1.677h-1.678v-1.677ZM5.032 46.968H6.71v1.677H5.032v-1.677Z"/><path fill="#1F2428" d="M46.097 19.5c.53-.46.87-1.131.87-1.887a2.52 2.52 0 0 0-2.515-2.516h-.887l2.891-4.048c.335-.469.512-1.02.512-1.596a2.747 2.747 0 0 0-2.745-2.743h-.61c-1.115 0-1.708.677-2.1 1.124-.366.418-.511.553-.838.553-.327 0-.472-.135-.838-.553-.393-.447-.986-1.124-2.1-1.124-1.115 0-1.707.677-2.099 1.125-.363.417-.51.552-.834.552-.325 0-.47-.135-.835-.552-.392-.448-.984-1.125-2.098-1.125h-.61c-.379 0-.74.077-1.067.215V4.194A4.198 4.198 0 0 0 26 0H4.194A4.198 4.198 0 0 0 0 4.194v43.612A4.198 4.198 0 0 0 4.194 52H26a4.198 4.198 0 0 0 4.194-4.194v-4.7a14.155 14.155 0 0 0 7.548 2.184C45.604 45.29 52 38.894 52 31.032c0-4.593-2.226-8.868-5.903-11.531Zm-.807-1.887a.84.84 0 0 1-.838.839h-13.42a.84.84 0 0 1 0-1.678h13.42a.84.84 0 0 1 .838.839Zm-15.096-4.93 1.725 2.414h-.887c-.295 0-.575.06-.838.154v-2.569Zm1.066-4.296h.611c.325 0 .47.135.835.552.391.448.983 1.126 2.098 1.126 1.114 0 1.706-.678 2.097-1.126.365-.417.51-.552.836-.552.327 0 .472.135.838.553.392.448.985 1.125 2.1 1.125 1.114 0 1.708-.677 2.1-1.125.366-.418.51-.553.838-.553h.61a1.068 1.068 0 0 1 .869 1.687l-3.588 5.023H33.98l-3.588-5.022a1.067 1.067 0 0 1 .868-1.688ZM4.194 1.677H26a2.52 2.52 0 0 1 2.516 2.517V6.71H1.677V4.194a2.52 2.52 0 0 1 2.517-2.517ZM26 50.323H4.194a2.52 2.52 0 0 1-2.517-2.517V45.29h26.84v2.516A2.52 2.52 0 0 1 26 50.323Zm2.516-6.71H1.677V8.387h26.84v9.226c0 .756.34 1.427.87 1.888a14.249 14.249 0 0 0-5.903 11.531c0 4.345 1.958 8.235 5.032 10.851v1.73Zm9.226 0c-6.937 0-12.58-5.644-12.58-12.58 0-4.503 2.425-8.659 6.338-10.904h12.481a12.577 12.577 0 0 1 6.342 10.903c0 6.937-5.644 12.58-12.581 12.58Z"/><path fill="#1F2428" d="M37.742 28.516a1.68 1.68 0 0 1 1.677 1.678h1.677c0-1.56-1.073-2.861-2.516-3.236V25.16h-1.677v1.678h-2.516v3.355a3.358 3.358 0 0 0 3.355 3.354 1.68 1.68 0 0 1 1.677 1.678v1.677h-1.677a1.68 1.68 0 0 1-1.678-1.677h-1.677c0 1.559 1.073 2.86 2.516 3.236v1.796h1.677v-1.677h2.516v-3.355a3.358 3.358 0 0 0-3.354-3.355 1.68 1.68 0 0 1-1.678-1.677v-1.678h1.678ZM43.893 37.909l1.118 1.25a10.85 10.85 0 0 0 3.598-7.22l-1.672-.137a9.18 9.18 0 0 1-3.044 6.107ZM48.608 30.125a10.954 10.954 0 0 0-.306-1.818l-1.624.418c.128.502.215 1.019.259 1.537l1.671-.137ZM23.484 13.42H6.71V25.16h16.774V13.42Zm-1.677 10.064H8.387v-8.387h13.42v8.387ZM6.71 26.839h15.097v1.677H6.71V26.84ZM6.71 30.194h15.097v1.677H6.71v-1.677ZM20.129 33.548h1.677v1.678H20.13v-1.678ZM6.71 33.548h11.742v1.678H6.71v-1.678ZM6.71 36.903h15.097v1.678H6.71v-1.678ZM26.839 31.032h1.677a9.215 9.215 0 0 1 4.125-7.688l-.928-1.398a10.888 10.888 0 0 0-4.874 9.086Z"/></svg>