<svg xmlns="http://www.w3.org/2000/svg" width="52" height="52" fill="none"><path fill="#41B7E9" d="M39.42 41.097c-3.7 0-6.71-3.01-6.71-6.71s3.01-6.71 6.71-6.71 6.71 3.01 6.71 6.71-3.01 6.71-6.71 6.71ZM16.78 5.031h-3.538C5.945 5.031.005 10.97.001 18.266L0 20.002a13.168 13.168 0 0 0 7.32 11.85c1.08.54 2.219.96 3.384 1.243l.2.05.006-7.985h-.84a2.516 2.516 0 1 1 0-5.032h.84v-1.677c0-.927.75-1.678 1.676-1.678H22.65c.62 0 1.154.34 1.445.839h.234a2.52 2.52 0 0 0 2.517-2.516c0-5.55-4.515-10.065-10.065-10.065Z"/><path fill="#1F2428" d="M18.457 20.967a1.68 1.68 0 0 1 1.678 1.677h1.677a3.358 3.358 0 0 0-3.355-3.355 3.358 3.358 0 0 0-3.355 3.355h1.678a1.68 1.68 0 0 1 1.677-1.677Z"/><path fill="#1F2428" d="M26.838 38.735a2.489 2.489 0 0 0-.839-.154h-4.45l-1.228-3.273a5.26 5.26 0 0 0-1.25-1.904c3.469-.68 6.094-3.74 6.094-7.405v-7.548a2.52 2.52 0 0 0-2.516-2.516H12.586a2.52 2.52 0 0 0-2.516 2.516v.838a3.358 3.358 0 0 0-3.355 3.355A3.358 3.358 0 0 0 10.07 26l-.006 6.94.64.157c.344.083.69.153 1.04.213a5.283 5.283 0 0 0-1.68 3.863 9.74 9.74 0 0 0 1.677 5.476V52h11.742v-5.032h4.194v.001h3.355a4.198 4.198 0 0 0 4.193-4.193c0-.295-.06-.575-.154-.839l16.928-.002V26.84H26.838v11.896Zm-5.42-8.27c-.24-.075-.483-.146-.712-.236-1.088-.428-1.887-1.402-2.153-2.552h4.688a5.881 5.881 0 0 1-1.824 2.788ZM10.07 24.322a1.68 1.68 0 0 1-1.678-1.678 1.68 1.68 0 0 1 1.678-1.677h1.677v-2.516a.84.84 0 0 1 .839-.839h10.063a.84.84 0 0 1 .84.839v7.548H16.78v.839c0 1.98 1.101 3.79 2.783 4.693a5.823 5.823 0 0 1-1.947.34h-3.14c-.918 0-1.835-.088-2.734-.264l.007-7.285h-1.68Zm11.736 26h-8.387v-5.788a9.745 9.745 0 0 0 6.44 2.434h1.947v3.355Zm5.032-5.032H19.86c-4.477 0-8.119-3.642-8.119-8.122a3.624 3.624 0 0 1 3.62-3.62c1.5 0 2.863.944 3.39 2.35l1.28 3.414-1.44 2.159 1.396.93 1.429-2.143h4.583a.84.84 0 0 1 .839.839v4.193Zm5.871-3.353a.84.84 0 0 1 .839.839 2.52 2.52 0 0 1-2.516 2.516h-2.517v-3.848l.941-.94a.832.832 0 0 1 .593-.244h.144a.84.84 0 0 1 .839.839v.838h1.677Zm17.613-1.679H40.257v-1.677a2.52 2.52 0 0 0 2.517-2.516 2.52 2.52 0 0 0-2.517-2.517H38.58a.84.84 0 0 1 0-1.677h1.677a.84.84 0 0 1 .84.839h1.676a2.52 2.52 0 0 0-2.516-2.516v-1.678h10.065v11.742ZM38.58 28.516v1.678a2.52 2.52 0 0 0-2.516 2.516 2.52 2.52 0 0 0 2.516 2.516h1.677a.84.84 0 0 1 0 1.677H38.58a.84.84 0 0 1-.839-.838h-1.677a2.52 2.52 0 0 0 2.516 2.516v1.678h-6.014a2.521 2.521 0 0 0-2.373-1.677h-.144c-.565 0-1.096.194-1.534.535v-10.6H38.58ZM48.1 3.355l-2.585-2.07A5.897 5.897 0 0 0 41.848 0h-7.461a1.68 1.68 0 0 0-1.678 1.677c0 .614.178 1.182.466 1.678h-2.143a2.52 2.52 0 0 0-2.516 2.516c0 1.16.792 2.13 1.862 2.419-.117.29-.185.605-.185.936 0 1.16.793 2.13 1.862 2.419-.117.29-.184.604-.184.936a2.52 2.52 0 0 0 2.516 2.516h7.831c1.064 0 2.109-.29 3.021-.837l2.8-1.68h3.96V3.356H48.1Zm-3.724 9.466a4.193 4.193 0 0 1-2.157.598h-7.832a.84.84 0 0 1 0-1.677h5.032v-1.678h-6.71a.84.84 0 0 1 0-1.677h6.71V6.71h-8.387a.84.84 0 0 1 0-1.678H39.809l.433.649a4.18 4.18 0 0 0 3.489 1.867h.72V5.871h-.72a2.51 2.51 0 0 1-2.094-1.12l-.93-1.396h-4.643a1.68 1.68 0 0 1-1.677-1.678h7.46c.948 0 1.88.327 2.62.92l2.5 2v6.67l-2.59 1.554Zm5.946-1.918h-1.677v-5.87h1.677v5.87Z"/><path fill="#1F2428" d="M33.548 16.774h1.677v8.387h-1.677v-8.387ZM36.902 23.484h1.678v1.677h-1.678v-1.677ZM36.902 16.774h1.678v5.032h-1.678v-5.032ZM43.612 23.484h1.678v1.677h-1.678v-1.677ZM43.612 16.774h1.678v5.032h-1.678v-5.032ZM40.258 16.774h1.677v8.387h-1.677v-8.387Z"/></svg>