<svg xmlns="http://www.w3.org/2000/svg" width="52" height="52" fill="none"><path fill="#41B7E9" d="M22.54 26h25.734a2.887 2.887 0 0 1 2.739 3.8l-2.55 7.646a2.886 2.886 0 0 1-2.738 1.973H25.056L22.54 26Z"/><path fill="#1F2428" d="M16.88 14.683 23.59 2.944l1.456.832-6.708 11.74-1.456-.833ZM23.483 10.903A2.52 2.52 0 0 0 26 13.42a2.52 2.52 0 0 0 2.516-2.516A2.52 2.52 0 0 0 26 8.387a2.52 2.52 0 0 0-2.517 2.516ZM26 10.065a.839.839 0 1 1-.001 1.677.839.839 0 0 1 0-1.678ZM18.451 7.548a2.52 2.52 0 0 0-2.516-2.516 2.52 2.52 0 0 0-2.516 2.516 2.52 2.52 0 0 0 2.516 2.517 2.52 2.52 0 0 0 2.516-2.517Zm-2.516.84a.839.839 0 1 1 0-1.679.839.839 0 0 1 0 1.678Z"/><path fill="#1F2428" d="M48.275 25.161h-.213C50.44 23.491 52 20.733 52 17.613c0-5.087-4.139-9.226-9.226-9.226-3.12 0-5.877 1.56-7.548 3.938V0H7.172L0 8.068v2.315l7.172 8.069h11.012c1.21 0 2.25.863 2.473 2.052l4.357 23.238c-1.836.447-3.207 2.094-3.207 4.064 0 .948.327 1.814.86 2.517h-2.538V40.258h-5.032v10.065h-1.678V31.87H8.387v18.452H6.71v-13.42H1.677v13.42H0V52h26a4.198 4.198 0 0 0 4.194-4.194 4.15 4.15 0 0 0-.861-2.516h11.785a4.155 4.155 0 0 0-.86 2.516A4.198 4.198 0 0 0 44.452 52a4.198 4.198 0 0 0 4.193-4.194 4.198 4.198 0 0 0-4.193-4.193H26.696l-.629-3.355h19.66a3.72 3.72 0 0 0 3.533-2.547l2.549-7.646a3.729 3.729 0 0 0-3.533-4.904Zm-4.662 1.678v1.677h-3.355V26.84h3.355Zm-5.032 1.677h-3.355V26.84h3.355v1.677Zm0 1.678v3.354h-3.355v-3.355h3.355Zm-5.033-1.678h-3.355V26.84h3.355v1.677Zm-5.032 0h-4.651l-.315-1.677h4.966v1.677Zm-4.336 1.678h4.336v3.354H24.81l-.629-3.355Zm6.014 0h3.354v3.354h-3.355v-3.355Zm3.354 5.032v3.355h-3.355v-3.355h3.355Zm1.678 0h3.355v3.355h-3.355v-3.355Zm5.032 0h3.355v3.355h-3.355v-3.355Zm0-1.678v-3.355h3.355v3.355h-3.355Zm5.032-3.355h4.708l-1.119 3.355H45.29v-3.355Zm4.995-1.677H45.29V26.84h2.985c1.003 0 1.835.724 2.01 1.677Zm-7.51-18.451c4.162 0 7.548 3.385 7.548 7.548 0 4.162-3.386 7.548-7.549 7.548-4.162 0-7.548-3.386-7.548-7.548 0-4.163 3.386-7.548 7.548-7.548ZM1.676 8.705l5.033-5.66v12.362L1.677 9.746v-1.04Zm15.097 8.07H8.387V1.676h25.161v15.097H16.774Zm4.746 1.677h12.071a9.22 9.22 0 0 0 3.896 6.71H23.236l-.932-4.967a4.15 4.15 0 0 0-.784-1.743Zm-4.746 23.483h1.678v8.388h-1.678v-8.388Zm-6.71-8.387h1.678v16.775h-1.678V33.548Zm-6.71 5.033h1.678v11.742H3.355V38.58Zm25.162 9.225A2.52 2.52 0 0 1 26 50.323a2.52 2.52 0 0 1-2.516-2.517A2.52 2.52 0 0 1 26 45.29a2.52 2.52 0 0 1 2.516 2.516Zm18.452 0a2.52 2.52 0 0 1-2.516 2.517 2.52 2.52 0 0 1-2.517-2.517 2.52 2.52 0 0 1 2.517-2.516 2.52 2.52 0 0 1 2.516 2.516Zm-21.845-12.58h3.393v3.355h-2.763l-.63-3.355Zm20.604 3.355h-.437v-3.355h3.03l-.652 1.955a2.044 2.044 0 0 1-1.941 1.4Z"/><path fill="#1F2428" d="M41.72 21.806h.215v1.678h1.677v-1.678h.216c1.269 0 2.3-1.031 2.3-2.3 0-.992-.632-1.87-1.573-2.183l-3.032-1.01a.623.623 0 0 1 .196-1.216h2.109c.344 0 .623.28.623.623v.215h1.678v-.215c0-1.269-1.032-2.3-2.301-2.3h-.216v-1.678h-1.677v1.677h-.216a2.303 2.303 0 0 0-2.3 2.3c0 .993.632 1.87 1.573 2.184l3.032 1.01a.623.623 0 0 1-.196 1.216h-2.109a.623.623 0 0 1-.623-.623v-1.054H39.42v1.054c0 1.269 1.032 2.3 2.3 2.3Z"/></svg>