<svg xmlns="http://www.w3.org/2000/svg" width="52" height="52" fill="none"><path fill="#41B7E9" d="M31.265 10.065a1.67 1.67 0 0 1 1.445-.84h5.87a2.516 2.516 0 0 1 2.517 2.517h.56a2.795 2.795 0 0 1 1.677 5.032l-2.237 1.678v5.096l1.781-.712a11.783 11.783 0 0 0 7.445-10.994C50.323 5.312 45.01 0 38.48 0H32.71a5.877 5.877 0 0 0-5.871 5.871 4.199 4.199 0 0 0 4.193 4.194h.233ZM3.354 33.548h12.581v6.71H3.355v-6.71Z"/><path fill="#1F2428" d="M41.935 26.092v-7.221l1.902-1.426a3.653 3.653 0 0 0 1.453-2.908 3.64 3.64 0 0 0-3.46-3.63 3.362 3.362 0 0 0-3.25-2.52h-5.87a2.52 2.52 0 0 0-2.517 2.516H1.678V6.71a.84.84 0 0 1 .84-.839h24.322c0-.583.088-1.146.247-1.677H2.516A2.52 2.52 0 0 0 0 6.71v35.225a2.52 2.52 0 0 0 2.516 2.517h27.677V52H52V37.777c0-5.836-4.362-10.825-10.065-11.685Zm-.46 1.642c.093.011.187.022.28.037l-.45 4.486-1.663-2.08 1.832-2.443ZM31.87 13.242v-2.339a.84.84 0 0 1 .839-.838h5.87a1.68 1.68 0 0 1 1.678 1.677v.839h1.398a1.96 1.96 0 0 1 1.957 1.956c0 .613-.293 1.198-.783 1.566l-2.572 1.93v8.526l-1.677 2.237-1.678-2.236v-2.237h1.678v-1.678h-4.194a2.52 2.52 0 0 1-2.516-2.516v-1.357l-1.135-.568a.976.976 0 0 1-.543-.878c0-.195.058-.383.166-.545l.807-1.212c.46-.692.705-1.496.705-2.327ZM35.67 27.71l1.85 2.467-1.664 2.08-.453-4.527.267-.02Zm-5.477-14.468c0 .499-.145.98-.422 1.396l-.808 1.212c-.293.439-.447.95-.447 1.476 0 1.014.564 1.926 1.47 2.38l.207.103v.32a4.198 4.198 0 0 0 4.194 4.194h.839v1.74c-4.813.372-8.792 3.66-10.274 8.033l-.61-3.043.704-2.814a3.805 3.805 0 0 0-.561-3.094c2.236-.088 4.031-1.92 4.031-4.177a4.198 4.198 0 0 0-4.193-4.194h-1.618c-3.508 0-6.805-1.34-9.327-3.762a2.472 2.472 0 0 0-.113-.431h16.928v.661Zm-18.451.177v15.097a.84.84 0 0 1-.839.839.84.84 0 0 1-.838-.839V13.42a.84.84 0 0 1 .838-.838.84.84 0 0 1 .839.838Zm-3.355 9.91a2.513 2.513 0 0 1-1.677-2.361c0-1.092.703-2.015 1.677-2.362v4.724Zm5.032-8.07a15 15 0 0 0 8.387 3.15v5.105c-.033.002-.067.001-.1.003v.005c-.123-.013-.243-.038-.37-.038H19.29c-.824 0-1.55.403-2.01 1.018a15.275 15.275 0 0 0-3.86 2.176V15.259Zm10.065 8.225v-5.032h.839a2.52 2.52 0 0 1 2.516 2.516 2.52 2.52 0 0 1-2.516 2.516h-.84Zm-4.685 6.71-.45-.45a2.533 2.533 0 0 1-.736-1.779v-.103c.446.403 1.03.654 1.677.654h2.517V26.84H19.29a.84.84 0 0 1-.838-.839.84.84 0 0 1 .838-.839h2.045a2.15 2.15 0 0 1 2.084 2.67l-.59 2.363h-4.03ZM2.516 42.774a.84.84 0 0 1-.839-.839V12.581h6.864a2.488 2.488 0 0 0-.154.838v3.44a4.201 4.201 0 0 0-3.355 4.109 4.201 4.201 0 0 0 3.355 4.109v3.44a2.52 2.52 0 0 0 2.516 2.515 2.515 2.515 0 0 0 2.475-2.106c.77-.739 1.633-1.38 2.557-1.918v.957c0 1.12.437 2.173 1.228 2.965l.494.494 1.068 8.005a5.759 5.759 0 0 0 1.677 3.345H2.516Zm25.998 0a5.733 5.733 0 0 0 1.235-1.76l.445-.998v2.758h-1.68Zm21.809 7.549h-3.355V34.387H45.29v15.936H31.871V34.387h-1.677v1.5l-1.977 4.447a4.112 4.112 0 0 1-3.755 2.44 4.122 4.122 0 0 1-4.074-3.566l-.979-7.337h3.387l1.527 7.631v.756H26v-2.417c0-4.709 3.294-8.748 7.745-9.839l.85 8.515 3.986-4.982 3.984 4.982.834-8.339c4.025 1.365 6.924 5.196 6.924 9.6v12.545Z"/><path fill="#1F2428" d="M10.065 7.548h1.677v1.678h-1.678V7.548ZM6.71 7.548h1.677v1.678H6.71V7.548ZM3.354 7.548h1.678v1.678H3.354V7.548ZM3.354 32.71h12.581v1.677H3.355V32.71ZM12.581 36.065h3.355v1.677H12.58v-1.677ZM3.354 36.065h7.549v1.677H3.354v-1.677ZM3.354 39.42h12.581v1.677H3.355v-1.678ZM34.388 13.42a.839.839 0 1 0 0-1.678.839.839 0 0 0 0 1.677Z"/></svg>