<svg xmlns="http://www.w3.org/2000/svg" width="52" height="52" fill="none"><path fill="#41B7E9" d="M2.516 15.097a2.516 2.516 0 1 0 0-5.032 2.516 2.516 0 0 0 0 5.032ZM14.258 18.452a2.516 2.516 0 1 0 0-5.033 2.516 2.516 0 0 0 0 5.033ZM10.903 8.387a4.194 4.194 0 1 0 0-8.387 4.194 4.194 0 0 0 0 8.387ZM49.484 8.387a2.516 2.516 0 1 0 0-5.032 2.516 2.516 0 0 0 0 5.032ZM26 44.452c-4.624 0-8.387-3.763-8.387-8.387 0-4.625 3.763-8.388 8.387-8.388 4.625 0 8.388 3.763 8.388 8.388 0 4.624-3.763 8.387-8.388 8.387Z"/><path fill="#1F2428" d="M23.483 36.903v.839c0 1.092.704 2.015 1.678 2.362v1.831h1.677v-1.677h1.678v-2.516A2.52 2.52 0 0 0 26 35.226a.84.84 0 0 1-.84-.839v-.839H26a.84.84 0 0 1 .838.84v.838h1.678v-.839a2.513 2.513 0 0 0-1.678-2.362v-1.831h-1.677v1.677h-1.678v2.516A2.52 2.52 0 0 0 26 36.903a.84.84 0 0 1 .838.839v.839H26a.84.84 0 0 1-.84-.84v-.838h-1.677Z"/><path fill="#1F2428" d="M40.258 13.928v-2.759a19.541 19.541 0 0 0 3.338-7.647l.118-.58-.508-.305A18.496 18.496 0 0 0 33.69 0h-3.496v.839c0 .403.009.806.024 1.208-2.568.718-4.627 2.244-4.721 2.314l-.446.334.136.54a13.32 13.32 0 0 0 3.33 6.003v2.69l-2.933 3.141a32.606 32.606 0 0 0-6.289 9.77h-.843v-5.032a1.68 1.68 0 0 0-1.678-1.678H1.677A1.68 1.68 0 0 0 0 21.806v28.517A1.68 1.68 0 0 0 1.677 52h41.936c.847 0 1.541-.632 1.654-1.449C49.37 48.39 52 44.08 52 39.42a32.647 32.647 0 0 0-8.81-22.35l-2.932-3.141ZM33.69 1.678c2.848 0 5.649.723 8.137 2.099a17.774 17.774 0 0 1-2.853 6.288h-5.647a30.094 30.094 0 0 1-1.444-8.388h1.807Zm-3.496 11.741v-1.677h8.387v1.677h-8.388Zm.139-9.653a31.726 31.726 0 0 0 1.231 6.299h-1.842a11.633 11.633 0 0 1-2.755-4.679c.65-.42 1.913-1.159 3.366-1.62Zm8.315 24.75a5.875 5.875 0 0 0 4.965 4.965v5.167a5.875 5.875 0 0 0-4.965 4.965H13.352a5.875 5.875 0 0 0-4.965-4.965V33.48a5.875 5.875 0 0 0 4.965-4.965h25.296ZM5.032 23.484v-1.678H6.71v1.678H5.032Zm5.033 1.677v1.678H1.677V25.16h8.388ZM8.387 40.343a4.206 4.206 0 0 1 3.27 3.27h-3.27v-3.27Zm0-11.827h3.27a4.207 4.207 0 0 1-3.27 3.27v-3.27Zm8.387-3.355v1.678h-1.677V25.16h1.677ZM13.42 26.84h-1.677V25.16h1.677v1.678Zm-6.71 1.677v1.678H1.678v-1.678H6.71Zm0 3.355v1.677H1.678v-1.677H6.71Zm0 3.355v1.677H1.678v-1.677H6.71Zm0 3.355v1.677H1.678v-1.677H6.71Zm0 3.354v1.678H1.678v-1.678H6.71Zm0 3.355v1.678H1.678V45.29H6.71Zm1.678 0h35.226v1.678H8.387V45.29Zm35.226-1.677h-3.27a4.206 4.206 0 0 1 3.27-3.27v3.27Zm0-11.827a4.207 4.207 0 0 1-3.27-3.27h3.27v3.27Zm-26.839-8.302H8.387v-1.678h8.387v1.678Zm-13.42-1.678v1.678H1.678v-1.678h1.678Zm-1.677 26.84H6.71v1.677H1.677v-1.678Zm6.71 1.677v-1.678h35.226v1.678H8.387Zm36.903-1.721V28.516a1.68 1.68 0 0 0-1.677-1.677H21.116a30.934 30.934 0 0 1 5.694-8.625l2.91-3.117h2.151v5.032h1.677v-5.032h1.678v6.71h1.677v-6.71h2.151l2.91 3.117a30.975 30.975 0 0 1 8.359 21.205c0 3.727-1.94 7.196-5.033 9.183Z"/><path fill="#1F2428" d="M35.226 23.484h1.677v1.677h-1.677v-1.677ZM31.871 21.806h1.677v1.678h-1.677v-1.678ZM50.323 5.032V3.355h-1.678v1.677h-1.677V6.71h1.677v1.677h1.678V6.71H52V5.032h-1.677ZM1.677 15.097h1.678v-1.678h1.677v-1.677H3.355v-1.678H1.677v1.678H0v1.677h1.677v1.678ZM15.097 18.452v-1.678h1.677v-1.677h-1.677v-1.678H13.42v1.678h-1.678v1.677h1.678v1.678h1.677ZM10.065 0h1.677v3.355h-1.678V0ZM11.742 3.355h3.355v1.677h-3.355V3.355ZM10.065 5.032h1.677v3.355h-1.678V5.032ZM6.71 3.355h3.355v1.677H6.71V3.355Z"/></svg>