<svg xmlns="http://www.w3.org/2000/svg" width="190" height="48" fill="none"><path fill="#2B2A29" d="M80.603 31.344c-2.102 2.082-4.66 3.123-7.675 3.123-3.015 0-5.573-1.041-7.675-3.123-2.102-2.082-3.153-4.65-3.153-7.705 0-3.055 1.05-5.624 3.153-7.706 2.102-2.082 4.66-3.123 7.675-3.123 3.015 0 5.573 1.041 7.675 3.123 2.102 2.082 3.153 4.65 3.153 7.706 0 3.054-1.05 5.623-3.153 7.705ZM68.6 28.1c1.16 1.15 2.603 1.725 4.329 1.725 1.725 0 3.168-.574 4.329-1.725 1.16-1.151 1.74-2.639 1.74-4.462 0-1.826-.58-3.313-1.74-4.463-1.161-1.149-2.604-1.725-4.33-1.725-1.725 0-3.167.574-4.328 1.725-1.161 1.151-1.74 2.639-1.74 4.463 0 1.823.579 3.313 1.74 4.462Zm31.968 5.95h-5.058l-4.76-6.562v6.561h-4.463V13.225h4.463v12.466l4.462-6.516h5.206l-5.415 7.437 5.564 7.437.001.001Zm4.731-5.654c.516 1.39 1.705 2.082 3.569 2.082 1.209 0 2.162-.376 2.857-1.13l3.569 2.051c-1.467 2.043-3.629 3.065-6.486 3.065-2.498 0-4.497-.743-5.994-2.232-1.498-1.487-2.246-3.361-2.246-5.623 0-2.242.74-4.11 2.217-5.608 1.478-1.497 3.377-2.247 5.697-2.247 2.162 0 3.962.75 5.4 2.247 1.437 1.497 2.157 3.366 2.157 5.608 0 .635-.06 1.23-.178 1.786h-10.562v.001Zm-.09-3.331h6.396c-.437-1.567-1.488-2.35-3.153-2.35-1.726 0-2.807.783-3.243 2.35Zm22.134-5.891h4.761l-5.089 14.429c-.833 2.34-1.929 4.016-3.288 5.029-1.359 1.01-3.089 1.467-5.191 1.367v-4.166c1.031 0 1.825-.183 2.38-.55.554-.366 1.001-1.005 1.339-1.918l-5.921-14.191h4.908l3.303 9.104 2.797-9.104h.001Zm36.088 13.017c-1.527 1.517-3.391 2.275-5.593 2.275s-4.066-.758-5.593-2.275c-1.528-1.518-2.291-3.377-2.291-5.579s.763-4.06 2.291-5.578c1.527-1.517 3.391-2.275 5.593-2.275s4.066.758 5.593 2.275c1.527 1.518 2.29 3.376 2.29 5.578 0 2.202-.764 4.061-2.29 5.579Zm-8.033-3.05c.654.654 1.467.98 2.44.98.973 0 1.785-.326 2.44-.98.655-.655.981-1.498.981-2.529 0-1.03-.326-1.873-.981-2.528s-1.467-.981-2.44-.981c-.973 0-1.786.326-2.44.981-.655.654-.981 1.497-.981 2.528s.326 1.874.981 2.529Zm16.779-5.623c0 .298.253.54.758.73.506.187 1.116.376 1.829.564a16.46 16.46 0 0 1 2.142.73c.714.297 1.324.787 1.829 1.472.506.684.758 1.542.758 2.573 0 1.607-.595 2.822-1.786 3.645-1.189.822-2.658 1.234-4.402 1.234-3.135 0-5.267-1.18-6.396-3.54l3.867-2.202c.397 1.171 1.24 1.756 2.529 1.756 1.071 0 1.607-.308 1.607-.923 0-.296-.253-.544-.758-.743a16.942 16.942 0 0 0-1.829-.58 15.198 15.198 0 0 1-2.142-.744 4.57 4.57 0 0 1-1.828-1.442c-.507-.655-.758-1.458-.758-2.41 0-1.548.559-2.747 1.68-3.6 1.121-.853 2.505-1.28 4.151-1.28 1.229 0 2.35.274 3.363.819 1.011.544 1.826 1.334 2.44 2.365l-3.807 2.052c-.477-.873-1.141-1.31-1.994-1.31-.833 0-1.249.279-1.249.834h-.004Zm17.821-.06h-3.065v5.266c0 .595.238.971.715 1.131.476.159 1.259.209 2.35.149v4.045c-2.837.299-4.801.025-5.892-.817-1.091-.843-1.635-2.346-1.635-4.508V23.46h-2.38v-4.284h2.38v-2.827l4.462-1.34v4.167h3.065v4.284Zm-48.822-10.236c2.044 0 3.768.695 5.177 2.082 1.408 1.39 2.112 3.075 2.112 5.057 0 1.984-.704 3.67-2.112 5.059-1.409 1.389-3.133 2.082-5.177 2.082h-3.123v6.546h-4.76V13.223h7.883Zm0 9.818c.733 0 1.34-.259 1.814-.773.477-.517.715-1.151.715-1.904 0-.755-.238-1.39-.715-1.904-.476-.515-1.081-.773-1.814-.773h-3.123v5.355h3.123v-.001Z"/><path fill="url(#a)" fill-rule="evenodd" d="M23.885.115C37.077.115 47.77 10.808 47.77 24c0 13.192-10.693 23.885-23.885 23.885C10.693 47.885 0 37.192 0 24 0 10.808 10.693.115 23.885.115Zm0 9.3c8.055 0 14.584 6.53 14.584 14.585S31.94 38.584 23.885 38.584 9.301 32.055 9.301 24 15.83 9.416 23.885 9.416Z" clip-rule="evenodd"/><path fill="#1F2428" fill-rule="evenodd" d="M40.471 41.186a23.932 23.932 0 0 1-6.9 4.652l-6.89-7.524a14.562 14.562 0 0 0 7.508-3.99l6.284 6.862h-.002Z" clip-rule="evenodd" opacity=".2"/><path fill="url(#b)" fill-rule="evenodd" d="m51.088.368-8.73 8.488a23.99 23.99 0 0 0-7.621-6.141L37.169.366h13.92v.002ZM35.65 15.377l-8.285 8.053 22.52 23.862H36.594l-22.9-24.261 13.67-13.197a14.598 14.598 0 0 1 8.285 5.543h.002Z" clip-rule="evenodd"/><path fill="#1F2428" fill-rule="evenodd" d="M26.608 10.563a14.596 14.596 0 0 1 8.267 5.567l.774-.753a14.598 14.598 0 0 0-8.284-5.543l-.757.73Z" clip-rule="evenodd" opacity=".2"/><defs><linearGradient id="a" x1=".612" x2="54.7" y1="47.885" y2="37.989" gradientUnits="userSpaceOnUse"><stop stop-color="#5B52A3"/><stop offset="1" stop-color="#40B8EA"/></linearGradient><linearGradient id="b" x1="13.693" x2="49.953" y1="23.031" y2="23.031" gradientUnits="userSpaceOnUse"><stop stop-color="#54E1AB"/><stop offset="1" stop-color="#7EEEC1"/></linearGradient></defs></svg>