<svg xmlns="http://www.w3.org/2000/svg" width="408" height="405" fill="none"><g clip-path="url(#a)"><path fill="#F4F7FA" d="M401.282 172.989C390.243 100.737 344.984 11.962 255.563 2.673c0 0-67.89-8.257-134.813 4.258-39.718 7.427-74.546 29.539-96.582 61.318C2.132 100.027-5.227 138.776 3.708 175.72c5.801 24 9.723 48.829 8.646 73.485-1.873 42.909-.795 82.968 40.85 108.559 37.184 22.851 83.981 43.003 128.626 46.533 30.341 2.399 64.365-1.483 93.608-9.381 149.026-40.258 136.882-149.673 125.844-221.927Z" opacity=".1"/><path fill="#D8DEE8" d="M234.83 367.005c-18.16-4.761-34.1-22.904-36.246-41.279-3.899-33.411 32.979-37.638 45.236-62.343 9.967-20.093 4.96-44.518 15.721-64.355 9.465-17.455 30.079-29.273 50.064-26.703 17.233 2.217 32.996 16.323 36.909 33.6 2.909 12.867.78 31.363-5.209 43.228-4.894 9.695-11.338 18.387-20.08 24.931-7.111 5.324-16.066 8.74-21.55 16-10.387 13.744-7.572 34.048-12.946 49.507-3.755 10.803-13.456 21.361-24.056 25.655-9.221 3.724-18.85 4.116-27.843 1.759Z"/><path fill="#fff" d="M234.406 361.662a.59.59 0 0 0 .582-.444c.057-.219 5.831-22.231 17.245-50.787 10.53-26.337 28.147-63.787 52.288-92.623a.595.595 0 0 0-.508-.973.592.592 0 0 0-.402.211c-24.245 28.961-41.923 66.538-52.486 92.962-11.44 28.621-17.228 50.692-17.284 50.909a.583.583 0 0 0 .102.509.592.592 0 0 0 .463.233v.003Z" opacity=".8" style="mix-blend-mode:soft-light"/><path fill="#BFC8D6" d="M267.561 293.781c37.091-32.145 67.648-17.173 71.434-.832 3.75 16.184 1.789 100.218-103.107 75.865a4.022 4.022 0 0 1-3.111-4.038c.329-10.524 3.893-44.231 34.784-70.995Z"/><g opacity=".8" style="mix-blend-mode:soft-light"><path fill="#fff" d="M236.031 365.516a.586.586 0 0 0 .52-.29c.054-.092 5.455-9.324 17.6-21.363 11.2-11.11 30.604-26.95 59.397-39.322a.595.595 0 0 0-.238-1.148.597.597 0 0 0-.231.058c-28.987 12.455-48.519 28.412-59.799 39.606-12.238 12.142-17.696 21.482-17.745 21.575a.588.588 0 0 0-.002.59.596.596 0 0 0 .508.3l-.01-.006Z" opacity=".8" style="mix-blend-mode:soft-light"/><path fill="#fff" d="M267.803 331.539a.597.597 0 0 0 .58-.75c-.052-.187-5.037-19.016 11.587-31.047a.591.591 0 0 0 .121-.819.59.59 0 0 0-.816-.142c-9.043 6.545-11.836 14.982-12.586 20.91-.812 6.413.494 11.215.551 11.417a.592.592 0 0 0 .563.431ZM299.369 328.083c3.95.052 8.625-.773 13.92-3.235a.594.594 0 0 0-.5-1.077c-18.806 8.751-29.663-3.687-29.771-3.814a.591.591 0 0 0-.819-.049.591.591 0 0 0-.085.816c.116.145 2.909 3.389 8.177 5.54a24.754 24.754 0 0 0 9.078 1.819ZM268.17 354.567c3.949.052 8.625-.772 13.918-3.235a.593.593 0 1 0-.5-1.076c-18.806 8.75-29.663-3.688-29.77-3.814a.594.594 0 0 0-.905.768c.118.137 2.909 3.388 8.177 5.539a24.784 24.784 0 0 0 9.08 1.818Z" opacity=".8" style="mix-blend-mode:soft-light"/></g><path fill="url(#b)" d="m63.494 254.334 132.513-11.39v111.818L63.494 254.334Z"/><path fill="url(#c)" d="m196.008 242.944 73.211 23.476-73.211 20.173v-43.649Z"/><path fill="url(#d)" d="m195.877 242.944 36.606-13.739 72.777 22.259-36.171 14.956-73.212-23.476Z"/><path fill="url(#e)" d="m269.403 378.587-134.632 16.867V278.071l122.325-10.611 11.958-1.039.349 112.166Z"/><path fill="url(#f)" d="M134.77 278.202v117.252l-71.38-31.302V254.334l.136.063 71.244 23.805Z"/><path fill="url(#g)" d="m269.403 378.588-134.632 16.866v-6.682c2.629-1.216 5.751-2.171 8.872-2.834 10.445-2.222 29.107 1.654 35.637-9.207 8.378-13.971 1.192-31.87 17.85-41.434 7.854-4.509 17.23-4.137 25.89-5.236 7.394-.95 14.277-2.979 19.301-10.037 8.065-11.358 8.65-26.112 10.717-39.393.823-5.306 2.295-9.636 4.1-13.164l11.941-1.038.324 112.159Z" opacity=".5" style="mix-blend-mode:multiply"/><path fill="url(#h)" d="M134.77 388.625v6.829l-71.38-31.299V254.337l.17.062c3.574 7.743 4.444 17.081 4.986 25.663 1.085 17.185 8.073 33.566 23.15 38.778 1.983.69 3.99 1.424 5.998 2.217 15.418 6.109 30.558 16 31.325 37.334.459 12.554 1.619 22.19 5.751 30.234Z" opacity=".4" style="mix-blend-mode:multiply"/><path fill="url(#i)" d="m134.837 278.071-51.648 23.998-58.953-29.997 39.129-17.738 71.472 23.737Z"/><path fill="url(#j)" d="M194.875 76.737c0 25.561-19.988 45.673-45.527 44.885-26.586-.816-48.947-23.778-48.947-51.256 0-27.477 22.361-47.418 48.947-44.654 25.539 2.654 45.527 25.457 45.527 51.025Z"/><path fill="url(#k)" d="M201.777 74.526c0 25.562-19.987 45.673-45.528 44.886-26.593-.816-48.952-23.777-48.952-51.257 0-27.479 22.359-47.418 48.947-44.654 25.546 2.66 45.533 25.465 45.533 51.025Z"/><path fill="url(#l)" d="M199.772 74.391c0 24.436-19.124 43.626-43.529 42.836-25.352-.82-46.637-22.733-46.637-48.915 0-26.181 21.285-45.223 46.637-42.63 24.411 2.504 43.529 24.273 43.529 48.71Z"/><path fill="url(#m)" d="M198.337 74.295c0 23.63-18.506 42.164-42.093 41.372-24.471-.821-44.993-21.986-44.993-47.244s20.522-43.654 44.993-41.177c23.587 2.389 42.093 23.419 42.093 47.05Z"/><path fill="url(#n)" d="M156.002 35.283a2.573 2.573 0 0 1 2.27 2.523v4.351a65.496 65.496 0 0 1 13.068 2.865 2.544 2.544 0 0 1 1.732 2.611l-.533 5.456a2.048 2.048 0 0 1-2.92 1.696 31.829 31.829 0 0 0-3.71-1.382 33.645 33.645 0 0 0-6.998-1.309l-.641-.052v12.46c6.545 1.83 11.357 4.296 14.464 7.396 3.106 3.1 4.634 6.93 4.634 11.545 0 4.992-1.708 8.993-5.125 12.003-3.438 3.03-8.27 4.732-14.496 5.104v4.8c.006.297-.049.593-.161.869a2.198 2.198 0 0 1-1.237 1.211 2.183 2.183 0 0 1-.872.144h-.039a2.416 2.416 0 0 1-2.275-2.409v-4.736l-1.019-.047a66.203 66.203 0 0 1-8.397-.894 54.66 54.66 0 0 1-5.803-1.335 2.5 2.5 0 0 1-1.821-2.585l.629-7.014c.136-1.516 1.659-2.399 3.1-1.83a45.388 45.388 0 0 0 5.104 1.676 44.61 44.61 0 0 0 8.16 1.363l.041-13.86c-6.287-1.55-10.981-3.854-14.083-6.91-3.102-3.055-4.657-6.975-4.665-11.758 0-4.937 1.686-8.744 5.058-11.421 3.345-2.66 8.112-3.984 14.254-3.981v-4.448a2.05 2.05 0 0 1 1.413-2.013c.28-.091.576-.122.868-.09Zm-2.279 16.631c-1.94.14-3.454.674-4.543 1.6s-1.632 2.173-1.629 3.74c0 1.483.503 2.723 1.508 3.718 1.006.994 2.56 1.79 4.664 2.383V51.914Zm4.027 25.098v12.71c2.112 0 3.733-.504 4.861-1.511 1.129-1.008 1.693-2.434 1.692-4.28 0-1.68-.524-3.075-1.572-4.183-1.049-1.108-2.709-2.02-4.981-2.733v-.003Z"/><path fill="url(#o)" d="M148.626 80.083c1.421-14.047 14.332-19.993 12.646-32.914-1.039-7.963-7.074-14.673-13.807-19.914-20.423 2.143-36.218 19.055-36.218 41.164 0 25.258 20.522 46.422 44.993 47.243a42.526 42.526 0 0 0 6.953-.338c-9.716-9.667-15.789-23.168-14.567-35.241Z" opacity=".3" style="mix-blend-mode:multiply"/><path fill="url(#p)" d="M123.791 156.289c0 20.25-15.835 36.182-36.072 35.561-21.064-.647-38.779-18.839-38.779-40.608s17.714-37.571 38.777-35.378c20.239 2.107 36.074 20.174 36.074 40.425Z"/><path fill="url(#q)" d="M129.259 154.542c0 20.252-15.835 36.182-36.072 35.561-21.063-.647-38.78-18.838-38.78-40.606 0-21.769 17.715-37.573 38.778-35.378 20.239 2.106 36.074 20.172 36.074 40.423Z"/><path fill="url(#r)" d="M127.672 154.435c0 19.36-15.152 34.564-34.485 33.937-20.086-.65-36.946-18.01-36.946-38.753 0-20.744 16.864-35.829 36.946-33.77 19.333 1.981 34.485 19.227 34.485 38.586Z"/><path fill="url(#s)" d="M126.535 154.359c0 18.72-14.662 33.405-33.349 32.777-19.387-.651-35.646-17.419-35.646-37.429s16.259-34.586 35.646-32.622c18.687 1.892 33.349 18.553 33.349 37.274Z"/><path fill="url(#t)" d="M92.995 123.453a2.033 2.033 0 0 1 1.799 2v3.447c2.01.225 4.005.571 5.974 1.036 1.47.346 2.93.758 4.381 1.235a2.009 2.009 0 0 1 1.373 2.068l-.423 4.321a1.63 1.63 0 0 1-.802 1.282 1.62 1.62 0 0 1-1.511.062 24.82 24.82 0 0 0-2.94-1.093 26.521 26.521 0 0 0-5.543-1.037l-.51-.041v9.87c5.188 1.455 9.007 3.408 11.46 5.861 2.452 2.452 3.676 5.501 3.671 9.146 0 3.955-1.353 7.125-4.06 9.51-2.724 2.4-6.555 3.747-11.49 4.043v3.804a1.733 1.733 0 0 1-1.801 1.758h-.032a1.912 1.912 0 0 1-1.808-1.908v-3.753l-.802-.036a52.857 52.857 0 0 1-6.653-.708 43.66 43.66 0 0 1-4.587-1.059 1.987 1.987 0 0 1-1.442-2.05l.498-5.555c.107-1.201 1.309-1.901 2.456-1.454a35.552 35.552 0 0 0 10.508 2.407l.032-10.98c-4.98-1.233-8.698-3.058-11.156-5.475-2.459-2.418-3.69-5.521-3.696-9.309 0-3.912 1.335-6.928 4.007-9.049 2.653-2.108 6.426-3.156 11.294-3.155v-3.524a1.634 1.634 0 0 1 .523-1.242 1.64 1.64 0 0 1 .594-.35c.22-.072.454-.097.686-.072Zm-1.806 13.177c-1.538.111-2.738.534-3.598 1.268-.86.734-1.29 1.722-1.292 2.963a3.975 3.975 0 0 0 1.196 2.945c.794.787 2.026 1.417 3.694 1.891v-9.067Zm3.192 19.883v10.07c1.672 0 2.956-.399 3.851-1.197s1.342-1.928 1.34-3.391c0-1.331-.415-2.436-1.245-3.313-.83-.878-2.145-1.601-3.946-2.169Z"/><path fill="url(#u)" d="M87.152 158.942c1.125-11.127 11.354-15.838 10.019-26.074-.824-6.31-5.605-11.626-10.94-15.777-16.179 1.696-28.691 15.093-28.691 32.616 0 20.01 16.259 36.778 35.646 37.429 1.84.062 3.683-.028 5.509-.27-7.7-7.661-12.512-18.363-11.543-27.924Z" opacity=".3" style="mix-blend-mode:multiply"/><path fill="url(#v)" d="M69.782 387.023s-.279 2.216-.091 2.959c.188.743 6.63 1.279 8.817 1.018 2.188-.26-1.309-2.493-2.697-2.909-1.387-.416-6.029-1.068-6.029-1.068Z"/><path fill="url(#w)" d="m73.025 383.326-.678 4.447s-1.732.778-2.564.008l-.092-4.654 3.334.199Z"/><path fill="url(#x)" d="M36.702 383.128s1.368 1.018 1.003 2.228c-.365 1.211-3.554 6.085-5.827 7.467-2.274 1.381-1.561-1.499-.9-3.291.66-1.792 2.351-5.742 3.012-6.4.66-.657 2.712-.004 2.712-.004Z"/><path fill="url(#y)" d="M39.161 378.242a65.78 65.78 0 0 1-1.793 4.474c-1.101 2.473-1.702 3.4-2.383 4.204-.593.7-2 2.193-2.378 1.945-.378-.249.646-2.069 2.627-7.389.29-.773 1.197-3.234 1.197-3.234h2.73Z"/><path fill="url(#z)" d="M86.518 301.266c.696 6.826.779 13.7.249 20.54-.883 11.364-3.155 18.556-6.004 30.672-1.746 7.405-4.09 18.304-6.213 31.934a5.984 5.984 0 0 1-3.808.747 5.776 5.776 0 0 1-2.288-.873c-5.572-17.018-3.927-27.577-1.237-34.15 1.146-2.803 2.536-5.012 3.278-9.321.983-5.697-.233-8.882-1.965-22.082-1.235-9.408-1.018-10.863-.2-12.274 3.285-5.636 13.334-5.526 18.188-5.193Z"/><path fill="url(#A)" d="M67.345 303.248c-3.413 17.626-6.762 26.884-9.298 32.12a88.017 88.017 0 0 0-4.683 11.431c-1.746 5.288-2.473 9.177-2.847 10.889-1.177 5.404-4.084 13.293-11.91 23.641-.097.056-1.432.811-2.708.138a2.62 2.62 0 0 1-1.095-1.136 450.174 450.174 0 0 1 3.217-24.623 524.662 524.662 0 0 1 2.633-15.012c.582-3.044 1.425-7.504 2.44-12.086 1.263-5.704 3.2-13.464 6.187-22.765l18.064-2.597Z"/><path fill="url(#B)" d="M70.254 233.524c1.936-1.789 5.639-3.852 7.496-8.647.56-1.443 2.54-6.557-.38-10.473-1.736-2.327-4.958-3.899-7.797-3.345-2.426.477-2.806 2.167-6.928 5.568-1.6 1.323-4.185 3.451-7.056 4.634-4.918 2.027-7.873.121-12.812.337-6.066.268-13.114 3.654-16.509 8.582-6.026 8.739 2.703 17.6-3.898 27.84-2.163 3.354-3.229 2.602-8.352 9.094-5.123 6.491-7.694 9.745-7.238 13.735.635 5.527 6.588 10.809 12.195 11.167 5.477.352 8.959-3.958 11.747-2.073 1.986 1.341.85 3.95 2.959 7.085 2.717 4.043 8.056 4.848 8.919 4.979 8 1.207 18.801-8.181 23.386-19.302 8.26-20.054-6.262-39.453 4.268-49.181Z"/><path fill="url(#C)" d="M103.099 239.092c.054-5.599-12.654-10.071-18.481-11.513-9.052-2.243-16.3-.835-18.06-.462-11.289 2.391-18.318 9.163-20.964 12.013 2.166 1.411 8.145 5.715 11.107 13.882.92 2.541 3.643 11.227-.25 19.364-2.243 4.688-6.211 8.208-9.224 10.882-4.52 4.01-6.86 4.626-8.376 8.218-1.65 3.912.013 5.818-2.037 8.499-2.2 2.875-4.78 1.539-8.51 4.446-3.821 2.979-2.461 5.431-5.94 8.727-5.052 4.783-11.75 3.23-12.063 5.382-.268 1.852 4.493 4.364 8.538 5.382 8.01 2.018 14.996-1.369 17.075-2.413 5.753-2.889 4.758-4.759 9.145-6.963 7.342-3.689 12.363.416 29.09.839 9.058.229 13.638.281 16.146-2.784 2.29-2.8 1.086-5.87-.291-19.102-.655-6.298-.89-12.633-1.373-18.946-1.365-17.858-1.407-19.431-.195-21.899 4.34-8.848 14.615-8.528 14.663-13.552Z"/><path fill="url(#D)" d="M22.365 313.146c3.478-3.293 2.118-5.746 5.939-8.728 3.73-2.909 6.31-1.571 8.51-4.446 2.05-2.679.387-4.586 2.036-8.499 1.516-3.591 3.856-4.208 8.377-8.218 3.013-2.674 6.982-6.194 9.224-10.882 3.893-8.136 1.163-16.823.25-19.364-2.962-8.167-8.941-12.471-11.107-13.882.208-.226.454-.482.717-.751 14.276 1.961 22.6 10.21 23.629 12.655 2.38 5.645-1.388 7.72-1.485 24-.047 7.783.793 10.856-1.733 14.109-2.888 3.715-6.216 2.566-10.392 7.418-3.21 3.732-2.695 6.099-5.692 7.671-3.223 1.69-5.276-.281-8.909.495-6.071 1.294-7.37 8.291-11.383 12.125-3.036 2.897-8.647 4.922-19.715 2.749-.256-.374-.38-.738-.33-1.078.317-2.145 7.008-.592 12.064-5.374Z" opacity=".3" style="mix-blend-mode:multiply"/><path fill="url(#E)" d="M65.608 255.425c1.518 3.222-5.455 10.727-13.206 14.292-1.58.728-12.92 5.941-17.974.927-4.176-4.144-1.48-12.711-.517-15.77 4.724-15.018 19.234-22.658 25.316-25.414 4.538 11.345 1.866 16.404.814 17.984-1.1 1.649-4.167 5.114-7.418 8.166-2.292 2.147-3.719 3.191-3.527 3.527.239.416 2.925-.371 13.357-5.449 1.204.197 2.637.636 3.155 1.737Z"/><path fill="url(#F)" d="m109.26 236.91-5.116 25.492a2.09 2.09 0 0 1-1.611 1.634l-38.172 8.192a2.092 2.092 0 0 1-2.524-2.207l2.016-25.927a2.09 2.09 0 0 1 1.584-1.869c6.053-1.494 29.356-7.088 41.647-7.815a2.095 2.095 0 0 1 1.703.715 2.092 2.092 0 0 1 .473 1.785Z"/><path fill="url(#G)" d="M71.191 218.292s-.72 5.756-2.843 7.075c-2.124 1.319-5.56 3.04-5.938 3.508-.378.469 13.16 1.923 19.87-1.463-2.212-.461-2.812-.631-2.812-.631a12.37 12.37 0 0 1-2.843-1.125 9.666 9.666 0 0 1-3.124-2.883l.025-3.186-2.335-1.295Z"/><path fill="url(#H)" d="M70.867 220.331s1.385 1.901 3.558 1.109c1.945-.71.784-5.733-.76-6.306-.513-.19-1.454-.106-2.09.291-.444.276-1.63 1.746-.95 3.402-.492-.145-.924-.013-1.033.23-.137.308.279.727.374.825.246.24.561.397.901.449Z"/><path fill="url(#I)" d="M74.888 258.951c4.1-1.155 7.5 1.715 10.764-.557 3.345-2.328 1.163-6.3 4.64-10.208 3.718-4.178 8.436-2.131 11.878-5.939 1.278-1.414 2.427-3.717 2.445-7.644a79.606 79.606 0 0 1 2.472-.196 2.09 2.09 0 0 1 2.182 2.503l-5.124 25.492a2.097 2.097 0 0 1-1.612 1.634l-36.68 7.87c2.586-9.085 6.042-12.112 9.035-12.955Z" opacity=".3" style="mix-blend-mode:multiply"/><path fill="url(#J)" d="M106.831 250.472s2.435-2.244 2.695-4.862c.261-2.618-1.572-4.706-3.345-5.237-1.773-.53-2.73.254-1.535 2.828 1.196 2.575 3.087 4.239 2.185 7.271Z"/><path fill="url(#K)" d="m282.433 357.028-24.727-69.049c-.424-1.187-1.236-2.314-2.392-2.809l-31.392-13.592a4.36 4.36 0 0 0-5.605 2.001l-15.719 30.474a4.882 4.882 0 0 0-.24 3.753l24.727 69.047c.844 2.355 3.539 3.539 5.895 2.696l46.982-16.831c2.355-.838 3.315-3.331 2.471-5.69Zm-54.399-65.309a5.122 5.122 0 0 1-6.789-4.066 5.12 5.12 0 1 1 10.178-.501 5.11 5.11 0 0 1-1.677 3.549c-.5.452-1.084.801-1.718 1.027l.006-.009Z"/><path fill="#fff" d="M244.972 323.474a93.284 93.284 0 0 1-3.49.182c-4.531.127-6.928-.35-7.436-1.766-.272-.759-.22-1.659.608-2.579.691-.765 1.914-1.541 3.937-2.267 6.057-2.169 10.697-1.709 12.986-1.669l-1.054-10.535c-3.113-.145-6.876.028-12.636 1.856l-2.142-5.979-8.341 2.986 2.318 6.467c-2.832 1.649-5.437 3.818-7.045 6.109v.013c-2.586 3.697-3.143 7.908-1.652 12.072 2.718 7.587 10.457 8.978 19.293 8.014 6.278-.68 8.865-.271 9.611 1.815.824 2.298-1.659 4.131-5.348 5.453-5.428 1.943-11.085 1.926-15.159 1.502l1.028 10.94c3.564.53 9.746.041 15.154-1.582l2.308 6.443 8.34-2.986-2.532-7.069c3.238-1.709 5.219-3.491 6.858-5.54.009-.014.066-.043.074-.054 3.247-4.064 4.009-8.77 2.438-13.157-2.474-6.891-7.495-9.49-18.118-8.669Z"/><path fill="url(#L)" d="m280.914 352.788 1.52 4.244c.844 2.355-.116 4.848-2.472 5.692l-46.982 16.829c-2.357.844-5.052-.34-5.895-2.695l-24.728-69.048a4.678 4.678 0 0 1-.253-1.6c1.51 2.918 3.491 5.542 6.3 7.166 4.289 2.472 9.498 2.338 14.317 2.896.323.04.643.078.963.125 3.76.528 7.502 1.392 10.97 2.909a27.173 27.173 0 0 1 4.495 2.48 20.614 20.614 0 0 1 2.334 1.864c4.756 4.377 6.882 10.262 10.829 15.477 2.172 2.871 5.127 4.731 8.322 6.171 2.272 1.035 4.573 1.891 6.891 2.716 4.198 1.503 9.219 2.684 13.389 4.774Z" opacity=".2" style="mix-blend-mode:multiply"/><path fill="url(#M)" d="M226.19 284.446a.989.989 0 0 1-.968.768 1 1 0 0 1-.85-.469.995.995 0 0 1-.123-.753c.02-.08 1.787-7.934-1.928-11.294-1.229-1.109-2.951-1.698-5.153-1.624-.324.011-.659 0-1.008 0h-.015l-6.391.509a.953.953 0 0 1 .665-1.076c6.016-2.057 10.472-1.808 13.245.698 4.589 4.143 2.617 12.869 2.526 13.241Z"/><path fill="url(#N)" d="M318.121 121.195s19.871 24.146.717 60.986c-1.784 3.432-6.632 3.608-8.677.325l-13.027-20.912a14.02 14.02 0 0 1-1.586-11.231l5.542-19.508 17.031-9.66Z"/><path fill="url(#O)" d="M273.133 82.646s-26.909-15.935-60.377 8.637c-3.117 2.29-2.547 7.108 1.01 8.625l22.662 9.667a13.997 13.997 0 0 0 11.345-.145l18.431-8.461 6.929-18.323Z"/><path fill="url(#P)" d="M320.275 118.683s19.871 24.146.716 60.988c-1.784 3.431-6.633 3.606-8.677.323l-13.027-20.911a14.005 14.005 0 0 1-1.585-11.232l5.536-19.508 17.037-9.66Z"/><path fill="url(#Q)" d="M275.286 80.134s-26.909-15.935-60.377 8.638c-3.117 2.288-2.548 7.107 1.01 8.624l22.66 9.669a14.016 14.016 0 0 0 11.345-.155l18.429-8.46 6.933-18.316Z"/><path fill="url(#R)" d="M299.252 22.192c30.29-28.307 78.169-15.815 78.192-15.754.063.013 19.743 45.415-3.591 79.684-21.165 31.082-66.389 52.509-75.068 56.422-.934.42-2.445.987-2.955.099-9.935-17.259-23.71-28.454-40.531-34.712-.931-.346-.582-1.899-.312-2.856 2.495-9.052 16.742-57.152 44.265-82.883Z"/><path fill="url(#S)" d="M316.317 67.438c16.945-15.709 31.987-8.419 48.291-22.046 5.953-4.978 12.573-13.158 16.673-27.575 4.285 15.67 8.684 44.641-7.43 68.305-21.165 31.082-66.388 52.509-75.067 56.422-.934.42-2.445.987-2.956.099-5.018-8.719-11.019-15.887-17.89-21.657 6.276-3.405 10.837-7.311 14.244-11.078 13.732-15.195 8.697-28.157 24.135-42.47Z" opacity=".3" style="mix-blend-mode:multiply"/><path fill="url(#T)" d="M357.27 29.983c-10.888-9.329-24.403-17.916-36.675-20.923 23.742-9.01 49.115-4.382 55.386-2.98a2.863 2.863 0 0 1 2.036 1.745c2.346 5.983 10.807 30.347 5.543 55.189-4.029-10.422-15.405-23.704-26.29-33.032Z"/><path fill="url(#U)" d="m381.283 17.818.059.22c.034.125.069.25.102.377l.102.382.096.365.106.41c.037.137.06.236.09.355l.111.437.084.344c.04.155.077.31.115.467l.08.333.117.495.075.321.118.521c.025.105.048.21.071.316l.121.54.067.31.121.566.062.3c.041.195.082.391.121.59l.058.29c.041.204.082.407.121.614l.055.28a56.024 56.024 0 0 1 .17.913c.041.218.08.436.12.657l.046.27c.039.223.079.447.116.674l.044.263c.039.232.077.464.114.697l.04.256c.038.237.074.476.111.716.011.082.025.165.036.248.037.245.073.49.108.736l.033.242c.035.25.069.503.102.756l.031.23c.034.259.067.518.099.778l.026.223c.032.263.062.53.093.795l.023.217c.031.27.06.541.087.812l.022.212.08.83.018.201c.026.282.051.565.074.848 0 .066.01.131.016.197.023.29.045.579.065.864l.013.186c.021.29.04.585.059.883 0 .06.007.12.01.179.017.298.035.598.049.899v.168c.017.306.03.612.041.918v.16c.012.31.022.62.03.934v.145c.009.317.016.634.021.952v.145c.006.322.009.645.01.967V47.054c0 .335-.009.67-.015 1.005v.105c-.007.34-.017.68-.029 1.018v.088c-.011.349-.025.698-.042 1.047v.07c-.017.355-.037.711-.058 1.069v.05c-.022.364-.047.728-.073 1.095v.024a77.927 77.927 0 0 1-1.454 10.381c-2.578-6.659-8.157-14.488-14.691-21.707 4.656-5.078 9.265-12.453 12.403-23.48Z" opacity=".3" style="mix-blend-mode:multiply"/><path fill="url(#V)" d="M353.412 85.84c10.819-12.627 8.223-32.601-5.798-44.614-14.02-12.012-34.156-11.515-44.974 1.112-10.818 12.626-8.223 32.6 5.798 44.613 14.02 12.012 34.156 11.515 44.974-1.112Z"/><path fill="url(#W)" d="M316.316 67.438c13.828-12.819 26.388-10.327 39.402-16.378 6.4 11.363 5.922 25.199-2.299 34.793-10.819 12.625-30.955 13.123-44.975 1.11a37.74 37.74 0 0 1-3.209-3.098c2.124-5.414 5.03-10.816 11.081-16.427Z" style="mix-blend-mode:multiply"/><path fill="url(#X)" d="M351.294 84.025c9.916-11.574 7.537-29.883-5.315-40.894-12.851-11.01-31.308-10.555-41.224 1.018-9.917 11.574-7.537 29.882 5.315 40.894 12.851 11.01 31.308 10.555 41.224-1.019Z"/><path fill="url(#Y)" d="M348.294 81.456c8.638-10.082 6.566-26.031-4.629-35.623-11.195-9.591-27.272-9.194-35.911.888-8.638 10.082-6.566 26.03 4.629 35.623 11.195 9.591 27.273 9.194 35.911-.888Z"/><path fill="url(#Z)" d="M296.549 143.384c2.951-3.445-4.108-14.336-15.769-24.327-11.66-9.99-23.505-15.296-26.456-11.852-2.952 3.445 4.108 14.337 15.768 24.327 11.66 9.991 23.505 15.297 26.457 11.852Z"/><path fill="url(#aa)" d="m273.613 118.442 9.062 7.764a15.598 15.598 0 0 1 4.64 16.793l-1.913 5.713a3.13 3.13 0 0 1-2.131 2.02 3.115 3.115 0 0 1-2.865-.639l-30.05-25.746a3.125 3.125 0 0 1 .6-5.149l5.352-2.763a15.595 15.595 0 0 1 17.305 2.007Z"/><path fill="url(#ab)" d="M283.826 150.928c2.785-3.25-2.758-12.57-12.381-20.815-9.624-8.245-19.683-12.294-22.468-9.043-2.785 3.251 2.758 12.57 12.381 20.815 9.623 8.246 19.683 12.294 22.468 9.043Z"/><path fill="url(#ac)" d="M279.644 147.345c2.117-2.47-2.096-9.553-9.41-15.819-7.313-6.267-14.958-9.344-17.075-6.873-2.117 2.471 2.096 9.553 9.41 15.82 7.313 6.266 14.958 9.343 17.075 6.872Z"/><path fill="url(#ad)" d="M316.317 67.438c11.76-10.902 22.603-10.727 33.589-14.155 5.35 9.147 5.059 20.41-1.6 28.186-8.638 10.081-24.717 10.473-35.911.886a29.546 29.546 0 0 1-4.323-4.576c1.906-3.401 4.458-6.83 8.245-10.34Z" opacity=".3" style="mix-blend-mode:color-burn"/><path fill="url(#ae)" d="M254.894 123.783s-12.983 44.858-40.872 44.75c-9.839-.039-21.656-2.081-31.144 1.269-14.467 5.107-16.339 24.091-22.468 35.976-10.831 21.004-32.368 45.818-58.409 44.412-19.949-1.074-43.275 12.374-50.676 48.855a8.246 8.246 0 0 0 8.464 9.875l149.69-6.893a14.188 14.188 0 0 0 10.977-6.055c4.376-6.284 8.825-13.125 10.998-20.531 4.4-14.992-12.174-27.856-8.947-42.863 1.179-5.477 5.423-7.668 9.91-10.299 15.478-9.072 24.783-22.649 32.839-38.339 6.373-12.413 13.51-27.268 14.057-41.497.007 0-8.707-17.032-24.419-18.66Z" opacity=".4" style="mix-blend-mode:multiply"/><path fill="url(#af)" d="M303.272 212.222c.125-.132 3.2-.881 3.2-.881s.917-3.411 2.706-1.664 1.83 4.072.416 4.161c-1.414.089-4.245-.414-5.618.291-1.373.706-.704-1.907-.704-1.907Z"/><path fill="url(#ag)" d="m344.704 172.398-2.877-2.542a2.486 2.486 0 0 1-.835-1.949c.041-1.084-.021-2.668-.631-3.5-.982-1.34-4.668-.249-4.833 0-.728 1.088-.985 2.969 1.2 3.662 2.184.694 2.746 1.848 2.746 1.848l3.456 4.883 1.774-2.402Z"/><path fill="url(#ah)" d="M330.699 398.012c.28-.84 3.181-1.229 4.4.124.605.672.914 1.904.437 2.374-.171.172.372.592-.195.518-1.88-.243-4.918-2.178-4.642-3.016Z"/><path fill="url(#ai)" d="M333.581 398.741h2.928c-1.104-1.789-.136-6.854-.136-6.854l-3.149.25s.145 1.455.451 3.598c.101.735.036 1.854-.094 3.006Z"/><path fill="url(#aj)" d="M325.993 288.012a135.616 135.616 0 0 0-4.54 20.78c-3.558 25.871 4.003 26.697 2.591 55.366-.451 9.15 7.927 30.254 8.666 30.718.386.039.775.054 1.164.045 1-.035 1.992-.2 2.951-.491 1.326-.23 6.109-13.19 5.002-20.896-1.335-9.285.305-15.733-.102-23.015-.976-17.433-.059-35.848 1.155-35.917.77-.044 2.036 7.237 3.38 14.888 1.535 8.784 1.784 12.8 5.039 16.629 2.198 2.586 4.826 3.981 6.652 4.744 22.181 9.272 19.093 9.337 23.931 13.336.802.661 2.972 2.525 4.498 1.85 1.018-.454 1.325-1.856 1.454-2.489 1.018-5.031-2.102-15.521-10.327-19.456-2.95-1.409-3.773-.665-6.62-2.422-3.537-2.182-6.062-5.745-7.149-9.05-1.912-5.818 1.09-9.446 2.738-17.164.317-1.48-.16-14.72-1.589-23.461-1.879-11.427-38.894-3.995-38.894-3.995Z"/><path fill="url(#ak)" d="M333.381 398.351s3.569-.307 3.845.437c.277.743.309 2.618-1.876 2.246-2.185-.373-2.25-2.128-1.969-2.683Z"/><path fill="url(#al)" d="m304.172 211.283.93 2.932c-2.24 1.715-8.4 6.836-7.663 12.326 1.068 7.936 15.855 11.534 25.228 11.515 2.567 0 19.248-.039 27.08-12.007 6.882-10.512 2.619-23.636-.896-34.462a72.71 72.71 0 0 0-9.184-18.619l4.655-3.954c5.629 3.409 16.134 10.922 22.919 24.411 6.255 12.438 6.613 24.521 6.546 29.113-.083 5.687-.927 7.249-1.068 15.478-.129 7.592.484 12.321 1.42 21.153 3.29 31.037 2.484 36.595.075 42.119-2.029 4.655-3.782 8.665-8.029 11.075-8.503 4.819-15.622-3.223-34.153-1.745-6.445.514-8.727 1.745-11.375-.115-1.557-1.091-4.418-4.073-3.491-23.418.794-16.525 3.2-20.912-.249-25.659-3.024-4.16-6.131-2.519-15.444-7.223-6.094-3.078-19.26-9.728-20.428-20.676-.845-7.927 5.02-14.175 5.978-15.196 6.73-7.155 15.705-7.08 17.149-7.048Z"/><path fill="url(#am)" d="M337.479 227.405c-.109-2.064 1.247-3.647 1.542-3.987 1.244-1.424 1.519-1.6 2-1.782l.664-.23.075-.01c.405-.05 1.687.198 1.933.311.786.361.911 3.919-.406 8.615 0 .188-.014.379-.023.571-.014.28-.022.498-.029.682a1.33 1.33 0 0 0 .444 1.036 1.326 1.326 0 0 0 1.08.319c4.211-.643 3.63.373 3.491.697-.337.764-4.237 2.909-8.931 4.073-5.826 1.358-9.49 1.195-8.997.305.186-.334 3.077-1.843 6.494-2.971a2.547 2.547 0 0 0 1.631-1.621c.337-1.041.992-2.487 1.147-2.923-.299-.251-2.035-1.565-2.115-3.085Z"/><path fill="#26264F" d="M340.278 219.674c-.326 1.472.016 3.2.313 3.533.171.21.306.447.401.701a.712.712 0 0 1 .045.194c.115.999-1.6 1.761-1.413 2.24.145.347 1.232.168 1.293.456.061.288-.889.591-.828.912.047.243.605.156.852.567.124.206.045.329.101.883.027.293.08.583.16.866.314.977 1.684 1.617 2.036 1.334.099-.08.051-.176.202-.482.116-.212.26-.408.428-.582.409-.436 1.207-.621 2.051-.981 1.562-.667 2.112-1.41 2.283-1.664.063-.091.104-.16.133-.21.593-1.008.952-2.601.683-3.69-.448-1.825-2.472-1.455-3.611-3.425-1.32-2.267.291-4.601-.582-5.091-.972-.552-3.946 1.72-4.547 4.439Z"/><path fill="url(#an)" d="M340.23 226.119c.472-.416 1.002.193.862.835-.139.641-.912 1.163-1.486.907-.575-.256-.01-1.188.624-1.742Z"/><path fill="url(#ao)" d="m385.58 365.285 1.858 1.481 1.253-1.359-1.709-1.658a.923.923 0 0 0-1.229-.055l-.18.146a.91.91 0 0 0-.254.323.91.91 0 0 0-.089.401.914.914 0 0 0 .35.721Z"/><path fill="url(#ap)" d="M389.053 367.898c.045-1.371.728-1.784.402-2.449-.252-.522-.954-.852-1.529-.735-.806.164-1.148 1.163-1.223 1.396-.524 1.545.628 2.404-.01 3.675a3.438 3.438 0 0 0-.461 1.199c-.038.249-.131.873.135 1.031.307.191.938-.321 1.537-.808.728-.582 1.08-.873 1.257-1.371.247-.685-.143-.881-.108-1.938Z"/><path fill="url(#aq)" d="M350.663 293.388c-7.363-3.297-15.46 4.427-17.903 1.827-2.778-2.955 8.405-12.181 7.307-24.843-.64-7.386-5.494-16.336-12.787-18.998-7.602-2.775-13.565 2.845-19.73-1.462-3.303-2.308-2.074-4.262-5.844-8.038-6.455-6.464-13.382-4.072-17.172-8.402-1.362-1.557-2.4-4.073-2.016-8.427-1.068 2.408-1.807 5.312-1.468 8.486 1.164 10.949 14.334 17.6 20.428 20.677 9.309 4.703 12.42 3.063 15.444 7.223 3.447 4.746 1.043 9.133.249 25.658-.93 19.345 1.931 22.326 3.491 23.418 2.645 1.853 4.93.63 11.375.115 18.531-1.481 25.65 6.561 34.153 1.745a13.128 13.128 0 0 0 3.653-3.073c-4.742-.038-7.721-1.385-9.679-3.113-4.529-3.998-3.904-10.283-9.501-12.793Z" opacity=".3" style="mix-blend-mode:multiply"/></g><defs><linearGradient id="b" x1="63.494" x2="196.007" y1="298.852" y2="298.852" gradientUnits="userSpaceOnUse"><stop stop-color="#311944"/><stop offset="1" stop-color="#893976"/></linearGradient><linearGradient id="c" x1="98852.9" x2="135702" y1="79697" y2="79697" gradientUnits="userSpaceOnUse"><stop stop-color="#311944"/><stop offset="1" stop-color="#893976"/></linearGradient><linearGradient id="d" x1="281.227" x2="176.516" y1="211.998" y2="332.241" gradientUnits="userSpaceOnUse"><stop stop-color="#FFC444"/><stop offset="1" stop-color="#F36F56"/></linearGradient><linearGradient id="e" x1="124878" x2="249494" y1="293841" y2="293841" gradientUnits="userSpaceOnUse"><stop stop-color="#FFC444"/><stop offset="1" stop-color="#F36F56"/></linearGradient><linearGradient id="f" x1="16597.9" x2="60577.4" y1="315467" y2="315467" gradientUnits="userSpaceOnUse"><stop stop-color="#FFC444"/><stop offset="1" stop-color="#F36F56"/></linearGradient><linearGradient id="g" x1="124878" x2="249494" y1="293824" y2="293824" gradientUnits="userSpaceOnUse"><stop stop-color="#FFC444"/><stop offset="1" stop-color="#F36F56"/></linearGradient><linearGradient id="h" x1="31171.6" x2="66200.8" y1="316226" y2="316226" gradientUnits="userSpaceOnUse"><stop stop-color="#FFC444"/><stop offset="1" stop-color="#F36F56"/></linearGradient><linearGradient id="i" x1="71495.4" x2="47700.7" y1="85079.4" y2="148388" gradientUnits="userSpaceOnUse"><stop stop-color="#FFC444"/><stop offset="1" stop-color="#F36F56"/></linearGradient><linearGradient id="j" x1="131.443" x2="76.342" y1="78.73" y2="96.413" gradientUnits="userSpaceOnUse"><stop stop-color="#FCB148"/><stop offset=".05" stop-color="#FDBA46"/><stop offset=".14" stop-color="#FFC244"/><stop offset=".32" stop-color="#FFC444"/><stop offset=".48" stop-color="#FDB946"/><stop offset=".78" stop-color="#F99C4D"/><stop offset=".87" stop-color="#F8924F"/><stop offset="1" stop-color="#F8924F"/></linearGradient><linearGradient id="k" x1="176.015" x2="126.825" y1="23.884" y2="132.405" gradientUnits="userSpaceOnUse"><stop stop-color="#FFDB44"/><stop offset="1" stop-color="#FEEF06"/></linearGradient><linearGradient id="l" x1="103611" x2="97518.9" y1="87920.9" y2="55234.2" gradientUnits="userSpaceOnUse"><stop stop-color="#FCB148"/><stop offset=".05" stop-color="#FDBA46"/><stop offset=".14" stop-color="#FFC244"/><stop offset=".32" stop-color="#FFC444"/><stop offset=".48" stop-color="#FDB946"/><stop offset=".78" stop-color="#F99C4D"/><stop offset=".87" stop-color="#F8924F"/><stop offset="1" stop-color="#F8924F"/></linearGradient><linearGradient id="m" x1="88029.3" x2="112147" y1="33759.1" y2="84041.5" gradientUnits="userSpaceOnUse"><stop stop-color="#FCB148"/><stop offset=".05" stop-color="#FDBA46"/><stop offset=".14" stop-color="#FFC244"/><stop offset=".32" stop-color="#FFC444"/><stop offset=".48" stop-color="#FDB946"/><stop offset=".78" stop-color="#F99C4D"/><stop offset=".87" stop-color="#F8924F"/><stop offset="1" stop-color="#F8924F"/></linearGradient><linearGradient id="n" x1="43043.1" x2="57712.3" y1="18660.4" y2="51324" gradientUnits="userSpaceOnUse"><stop stop-color="#FFDB44"/><stop offset="1" stop-color="#FEEF06"/></linearGradient><linearGradient id="o" x1="48444" x2="78488.6" y1="36935.6" y2="74401.5" gradientUnits="userSpaceOnUse"><stop stop-color="#FCB148"/><stop offset=".05" stop-color="#FDBA46"/><stop offset=".14" stop-color="#FFC244"/><stop offset=".32" stop-color="#FFC444"/><stop offset=".48" stop-color="#FDB946"/><stop offset=".78" stop-color="#F99C4D"/><stop offset=".87" stop-color="#F8924F"/><stop offset="1" stop-color="#F8924F"/></linearGradient><linearGradient id="p" x1="37891.2" x2="15352.8" y1="83242.2" y2="90346.3" gradientUnits="userSpaceOnUse"><stop stop-color="#FCB148"/><stop offset=".05" stop-color="#FDBA46"/><stop offset=".14" stop-color="#FFC244"/><stop offset=".32" stop-color="#FFC444"/><stop offset=".48" stop-color="#FDB946"/><stop offset=".78" stop-color="#F99C4D"/><stop offset=".87" stop-color="#F8924F"/><stop offset="1" stop-color="#F8924F"/></linearGradient><linearGradient id="q" x1="56070.1" x2="35411.9" y1="60473.7" y2="105240" gradientUnits="userSpaceOnUse"><stop stop-color="#FFDB44"/><stop offset="1" stop-color="#FEEF06"/></linearGradient><linearGradient id="r" x1="49990.9" x2="46167.7" y1="103116" y2="82599.9" gradientUnits="userSpaceOnUse"><stop stop-color="#FCB148"/><stop offset=".05" stop-color="#FDBA46"/><stop offset=".14" stop-color="#FFC244"/><stop offset=".32" stop-color="#FFC444"/><stop offset=".48" stop-color="#FDB946"/><stop offset=".78" stop-color="#F99C4D"/><stop offset=".87" stop-color="#F8924F"/><stop offset="1" stop-color="#F8924F"/></linearGradient><linearGradient id="s" x1="40726.5" x2="55864.4" y1="67489.1" y2="99049.9" gradientUnits="userSpaceOnUse"><stop stop-color="#FCB148"/><stop offset=".05" stop-color="#FDBA46"/><stop offset=".14" stop-color="#FFC244"/><stop offset=".32" stop-color="#FFC444"/><stop offset=".48" stop-color="#FDB946"/><stop offset=".78" stop-color="#F99C4D"/><stop offset=".87" stop-color="#F8924F"/><stop offset="1" stop-color="#F8924F"/></linearGradient><linearGradient id="t" x1="19848.3" x2="29055.7" y1="49487.5" y2="69989.1" gradientUnits="userSpaceOnUse"><stop stop-color="#FFDB44"/><stop offset="1" stop-color="#FEEF06"/></linearGradient><linearGradient id="u" x1="21737.1" x2="40596.7" y1="69364.1" y2="92880.9" gradientUnits="userSpaceOnUse"><stop stop-color="#FCB148"/><stop offset=".05" stop-color="#FDBA46"/><stop offset=".14" stop-color="#FFC244"/><stop offset=".32" stop-color="#FFC444"/><stop offset=".48" stop-color="#FDB946"/><stop offset=".78" stop-color="#F99C4D"/><stop offset=".87" stop-color="#F8924F"/><stop offset="1" stop-color="#F8924F"/></linearGradient><linearGradient id="v" x1="75.361" x2="73.134" y1="372.767" y2="412.858" gradientUnits="userSpaceOnUse"><stop stop-color="#444B8C"/><stop offset="1" stop-color="#26264F"/></linearGradient><linearGradient id="w" x1="-13095.7" x2="-13163.8" y1="13778.6" y2="12750.9" gradientUnits="userSpaceOnUse"><stop stop-color="#FFC444"/><stop offset="1" stop-color="#F36F56"/></linearGradient><linearGradient id="x" x1="32463.2" x2="32682.9" y1="26796.2" y2="29639.7" gradientUnits="userSpaceOnUse"><stop stop-color="#444B8C"/><stop offset="1" stop-color="#26264F"/></linearGradient><linearGradient id="y" x1="-28220.4" x2="-28375.9" y1="29058.5" y2="26868.3" gradientUnits="userSpaceOnUse"><stop stop-color="#FFC444"/><stop offset="1" stop-color="#F36F56"/></linearGradient><linearGradient id="z" x1="91339.5" x2="95349.3" y1="198885" y2="198718" gradientUnits="userSpaceOnUse"><stop stop-color="#444B8C"/><stop offset="1" stop-color="#26264F"/></linearGradient><linearGradient id="A" x1="133245" x2="159852" y1="171248" y2="181499" gradientUnits="userSpaceOnUse"><stop stop-color="#444B8C"/><stop offset="1" stop-color="#26264F"/></linearGradient><linearGradient id="B" x1="314816" x2="304513" y1="171926" y2="160369" gradientUnits="userSpaceOnUse"><stop stop-color="#444B8C"/><stop offset="1" stop-color="#26264F"/></linearGradient><linearGradient id="C" x1="103.099" x2="10.291" y1="275.438" y2="275.438" gradientUnits="userSpaceOnUse"><stop stop-color="#FF9085"/><stop offset="1" stop-color="#FB6FBB"/></linearGradient><linearGradient id="D" x1="-255876" x2="-265537" y1="128527" y2="172004" gradientUnits="userSpaceOnUse"><stop stop-color="#FFC444"/><stop offset="1" stop-color="#F36F56"/></linearGradient><linearGradient id="E" x1="139610" x2="147396" y1="75287.5" y2="75287.5" gradientUnits="userSpaceOnUse"><stop stop-color="#FF9085"/><stop offset="1" stop-color="#FB6FBB"/></linearGradient><linearGradient id="F" x1="109.302" x2="61.83" y1="253.339" y2="253.339" gradientUnits="userSpaceOnUse"><stop stop-color="#AA80F9"/><stop offset="1" stop-color="#6165D7"/></linearGradient><linearGradient id="G" x1="-80413" x2="-82135.6" y1="18341" y2="14900.1" gradientUnits="userSpaceOnUse"><stop stop-color="#FFC444"/><stop offset="1" stop-color="#F36F56"/></linearGradient><linearGradient id="H" x1="-20637.7" x2="-21258.2" y1="26835.2" y2="28271.8" gradientUnits="userSpaceOnUse"><stop stop-color="#FFC444"/><stop offset="1" stop-color="#F36F56"/></linearGradient><linearGradient id="I" x1="167317" x2="180300" y1="65711.5" y2="65711.5" gradientUnits="userSpaceOnUse"><stop stop-color="#AA80F9"/><stop offset="1" stop-color="#6165D7"/></linearGradient><linearGradient id="J" x1="-20904.4" x2="-22419.7" y1="18247.2" y2="18912.8" gradientUnits="userSpaceOnUse"><stop stop-color="#FFC444"/><stop offset="1" stop-color="#F36F56"/></linearGradient><linearGradient id="K" x1="202.086" x2="282.735" y1="325.524" y2="325.524" gradientUnits="userSpaceOnUse"><stop stop-color="#E38DDD"/><stop offset=".71" stop-color="#AC79EF"/><stop offset="1" stop-color="#9571F6"/></linearGradient><linearGradient id="L" x1="50262.5" x2="80946.1" y1="121455" y2="110463" gradientUnits="userSpaceOnUse"><stop stop-color="#E38DDD"/><stop offset=".71" stop-color="#AC79EF"/><stop offset="1" stop-color="#9571F6"/></linearGradient><linearGradient id="M" x1="24648.3" x2="26622.9" y1="31011.6" y2="31011.6" gradientUnits="userSpaceOnUse"><stop stop-color="#444B8C"/><stop offset="1" stop-color="#26264F"/></linearGradient><linearGradient id="N" x1="21102.1" x2="13204.1" y1="35555.6" y2="28800.8" gradientUnits="userSpaceOnUse"><stop stop-color="#444B8C"/><stop offset="1" stop-color="#26264F"/></linearGradient><linearGradient id="O" x1="23106.3" x2="7774.67" y1="28816.6" y2="15704" gradientUnits="userSpaceOnUse"><stop stop-color="#444B8C"/><stop offset="1" stop-color="#26264F"/></linearGradient><linearGradient id="P" x1="60201.5" x2="76691.7" y1="109145" y2="94551.4" gradientUnits="userSpaceOnUse"><stop stop-color="#FFC444"/><stop offset="1" stop-color="#F36F56"/></linearGradient><linearGradient id="Q" x1="88016.7" x2="92916.6" y1="49238.5" y2="34039.8" gradientUnits="userSpaceOnUse"><stop stop-color="#FFC444"/><stop offset="1" stop-color="#F36F56"/></linearGradient><linearGradient id="R" x1="94657.8" x2="83125.6" y1="75716.8" y2="-59182.5" gradientUnits="userSpaceOnUse"><stop stop-color="#FFC444"/><stop offset="1" stop-color="#F36F56"/></linearGradient><linearGradient id="S" x1="86877.4" x2="71879.3" y1="60823.7" y2="-54238.4" gradientUnits="userSpaceOnUse"><stop stop-color="#FFC444"/><stop offset="1" stop-color="#F36F56"/></linearGradient><linearGradient id="T" x1="153020" x2="158983" y1="51298.6" y2="30254.2" gradientUnits="userSpaceOnUse"><stop stop-color="#FFC444"/><stop offset="1" stop-color="#F36F56"/></linearGradient><linearGradient id="U" x1="29140.2" x2="25148.4" y1="-10505.9" y2="-17827.6" gradientUnits="userSpaceOnUse"><stop stop-color="#FFC444"/><stop offset="1" stop-color="#F36F56"/></linearGradient><linearGradient id="V" x1="353.412" x2="302.639" y1="85.849" y2="42.346" gradientUnits="userSpaceOnUse"><stop stop-color="#EBEFF2"/><stop offset="1" stop-color="#fff"/></linearGradient><linearGradient id="W" x1="49216.2" x2="30048.5" y1="24125.5" y2="7732.17" gradientUnits="userSpaceOnUse"><stop stop-color="#EBEFF2"/><stop offset="1" stop-color="#fff"/></linearGradient><linearGradient id="X" x1="46287.4" x2="43007.3" y1="2495.58" y2="17636.8" gradientUnits="userSpaceOnUse"><stop stop-color="#EBEFF2"/><stop offset="1" stop-color="#fff"/></linearGradient><linearGradient id="Y" x1="34978.2" x2="36785.8" y1="28455" y2="-2675.47" gradientUnits="userSpaceOnUse"><stop stop-color="#444B8C"/><stop offset="1" stop-color="#26264F"/></linearGradient><linearGradient id="Z" x1="-5662.61" x2="-1252.64" y1="25472.2" y2="16451.1" gradientUnits="userSpaceOnUse"><stop stop-color="#FFC444"/><stop offset="1" stop-color="#F36F56"/></linearGradient><linearGradient id="aa" x1="19815.1" x2="10510.9" y1="30377.2" y2="22419.7" gradientUnits="userSpaceOnUse"><stop stop-color="#AA80F9"/><stop offset="1" stop-color="#6165D7"/></linearGradient><linearGradient id="ab" x1="167.117" x2="748.813" y1="16816.9" y2="25264.9" gradientUnits="userSpaceOnUse"><stop stop-color="#AA80F9"/><stop offset="1" stop-color="#6165D7"/></linearGradient><linearGradient id="ac" x1="-188.779" x2="147.319" y1="13209.3" y2="18088.6" gradientUnits="userSpaceOnUse"><stop stop-color="#444B8C"/><stop offset="1" stop-color="#26264F"/></linearGradient><linearGradient id="ad" x1="34048.2" x2="38920.1" y1="27394.3" y2="4668.36" gradientUnits="userSpaceOnUse"><stop stop-color="#444B8C"/><stop offset="1" stop-color="#26264F"/></linearGradient><linearGradient id="ae" x1="122.133" x2="255.957" y1="323.491" y2="53.361" gradientUnits="userSpaceOnUse"><stop stop-color="#E38DDD"/><stop offset="1" stop-color="#9571F6"/></linearGradient><linearGradient id="af" x1="16835.5" x2="27434.1" y1="7637.62" y2="8204.26" gradientUnits="userSpaceOnUse"><stop stop-color="#FFC444"/><stop offset="1" stop-color="#F36F56"/></linearGradient><linearGradient id="ag" x1="21635.1" x2="32906.7" y1="13021.6" y2="13380.2" gradientUnits="userSpaceOnUse"><stop stop-color="#FFC444"/><stop offset="1" stop-color="#F36F56"/></linearGradient><linearGradient id="ah" x1="11537.8" x2="11681.5" y1="10711.4" y2="10883.1" gradientUnits="userSpaceOnUse"><stop stop-color="#444B8C"/><stop offset="1" stop-color="#26264F"/></linearGradient><linearGradient id="ai" x1="4790.24" x2="4790.24" y1="19289.5" y2="18832.4" gradientUnits="userSpaceOnUse"><stop stop-color="#FFC444"/><stop offset="1" stop-color="#F36F56"/></linearGradient><linearGradient id="aj" x1="59828.5" x2="100203" y1="305462" y2="204735" gradientUnits="userSpaceOnUse"><stop stop-color="#444B8C"/><stop offset="1" stop-color="#26264F"/></linearGradient><linearGradient id="ak" x1="9372.39" x2="9476.37" y1="7992.86" y2="8128.46" gradientUnits="userSpaceOnUse"><stop stop-color="#444B8C"/><stop offset="1" stop-color="#26264F"/></linearGradient><linearGradient id="al" x1="184485" x2="247001" y1="241512" y2="241512" gradientUnits="userSpaceOnUse"><stop stop-color="#AA80F9"/><stop offset="1" stop-color="#6165D7"/></linearGradient><linearGradient id="am" x1="39761.7" x2="60764.2" y1="27602.4" y2="28397.3" gradientUnits="userSpaceOnUse"><stop stop-color="#FFC444"/><stop offset="1" stop-color="#F36F56"/></linearGradient><linearGradient id="an" x1="4152.91" x2="6184.13" y1="3260.94" y2="3327.07" gradientUnits="userSpaceOnUse"><stop stop-color="#FFC444"/><stop offset="1" stop-color="#F36F56"/></linearGradient><linearGradient id="ao" x1="11517.3" x2="11037.1" y1="8481.75" y2="7887.24" gradientUnits="userSpaceOnUse"><stop stop-color="#FFC444"/><stop offset="1" stop-color="#F36F56"/></linearGradient><linearGradient id="ap" x1="22015.4" x2="21925.9" y1="21777" y2="20809.6" gradientUnits="userSpaceOnUse"><stop stop-color="#444B8C"/><stop offset="1" stop-color="#26264F"/></linearGradient><linearGradient id="aq" x1="171959" x2="226262" y1="165371" y2="165371" gradientUnits="userSpaceOnUse"><stop stop-color="#AA80F9"/><stop offset="1" stop-color="#6165D7"/></linearGradient><clipPath id="a"><path fill="#fff" d="M0 0h407.272v405H0z"/></clipPath></defs></svg>